<svg width="109" height="109" viewBox="0 0 109 109" fill="none" xmlns="http://www.w3.org/2000/svg">
<path d="M8.57968 92.5803C3.8542 87.8545 3.85419 80.1924 8.57967 75.4666L74.604 9.43763C79.3295 4.71182 86.991 4.71183 91.7165 9.43763L99.5451 17.2668C104.271 21.9926 104.271 29.6546 99.5451 34.3804L33.5207 100.409C28.7952 105.135 21.1337 105.135 16.4082 100.409L8.57968 92.5803Z" fill="#ffffff"/>
<path d="M91.6969 100.412C86.9714 105.138 79.3099 105.138 74.5844 100.412L8.56003 34.3829C3.83455 29.6571 3.83456 21.9951 8.56003 17.2693L16.3886 9.44017C21.1141 4.71436 28.7756 4.71435 33.5011 9.44016L99.5254 75.4691C104.251 80.1949 104.251 87.857 99.5254 92.5828L91.6969 100.412Z" fill="#ffffff"/>
</svg>
